<?xml version="1.0" standalone="no"?>
<!DOCTYPE svg PUBLIC "-//W3C//DTD SVG 20010904//EN"
 "http://www.w3.org/TR/2001/REC-SVG-20010904/DTD/svg10.dtd">
<svg version="1.0" xmlns="http://www.w3.org/2000/svg"
 width="2100.000000pt" height="2100.000000pt" viewBox="0 0 2100.000000 2100.000000"
 preserveAspectRatio="xMidYMid meet">
<metadata>
Created by potrace 1.14, written by Peter Selinger 2001-2017
</metadata>
<g transform="translate(0.000000,2100.000000) scale(0.100000,-0.100000)"
fill="#000000" stroke="none">
<path d="M12048 20005 c-2 -2 -45 -6 -96 -9 -51 -4 -101 -9 -111 -11 -10 -2
-42 -6 -72 -10 -46 -5 -166 -25 -234 -39 -123 -25 -455 -102 -509 -117 -38
-12 -77 -22 -87 -24 -65 -13 -458 -141 -684 -223 -156 -57 -667 -260 -770
-307 -53 -23 -607 -252 -680 -280 -38 -15 -83 -33 -100 -40 -167 -72 -386
-146 -505 -170 -304 -60 -661 -156 -992 -266 -162 -54 -470 -167 -553 -204
-16 -7 -58 -25 -92 -39 -35 -14 -86 -37 -115 -50 -98 -45 -133 -58 -163 -62
-16 -3 -66 -12 -110 -19 -44 -8 -96 -17 -115 -20 -29 -5 -225 -45 -295 -61
-11 -2 -31 -6 -45 -9 -164 -30 -667 -180 -880 -261 -876 -336 -1549 -760
-2130 -1345 -145 -146 -166 -169 -354 -389 -104 -121 -301 -400 -419 -591
-174 -282 -341 -626 -466 -961 -130 -348 -351 -1113 -436 -1508 -2 -8 -13 -58
-25 -110 -12 -52 -25 -115 -30 -140 -5 -25 -12 -56 -15 -70 -11 -55 -54 -277
-60 -315 -4 -22 -9 -50 -11 -63 -2 -12 -8 -49 -14 -82 -6 -33 -12 -72 -15 -87
-6 -36 -44 -295 -50 -348 -3 -22 -7 -56 -10 -75 -3 -19 -7 -62 -11 -95 -3 -33
-7 -71 -9 -85 -2 -14 -7 -59 -11 -100 -3 -41 -8 -88 -10 -105 -42 -411 -52
-1183 -19 -1570 2 -27 7 -88 10 -135 3 -47 8 -98 10 -115 2 -16 7 -91 10 -165
4 -74 8 -141 10 -150 1 -8 6 -52 9 -97 4 -45 8 -90 10 -100 2 -10 7 -45 10
-78 4 -33 9 -71 11 -85 6 -30 12 -70 20 -125 4 -22 10 -58 15 -80 5 -22 12
-56 15 -75 37 -215 182 -722 260 -905 7 -16 36 -88 65 -160 136 -335 353 -722
571 -1015 174 -235 425 -501 619 -655 41 -33 81 -65 88 -72 7 -7 81 -58 165
-114 235 -157 907 -671 1522 -1163 165 -132 305 -245 312 -250 6 -6 27 -23 45
-37 30 -24 280 -228 373 -304 101 -82 946 -785 971 -808 26 -23 365 -309 509
-430 33 -28 161 -136 285 -241 124 -105 236 -200 249 -211 13 -11 29 -24 35
-30 6 -5 40 -35 76 -65 35 -30 76 -65 90 -77 14 -11 88 -74 165 -139 77 -65
183 -154 235 -198 52 -45 103 -88 114 -96 10 -8 23 -20 30 -25 17 -16 104 -75
110 -75 3 0 26 -13 52 -29 142 -91 471 -205 802 -280 366 -83 600 -118 987
-148 198 -15 901 -7 1045 12 19 2 67 7 105 10 61 5 130 13 265 30 19 3 58 7
85 10 28 3 57 8 65 10 8 2 35 7 60 10 113 15 454 82 616 120 38 9 76 18 84 20
48 10 305 80 420 113 384 113 923 312 1280 474 25 12 74 34 110 50 36 17 112
47 170 68 484 175 987 413 1468 695 124 73 184 106 342 187 285 147 492 268
765 447 72 47 137 90 147 96 27 16 196 138 295 212 50 37 140 99 200 138 212
136 484 340 667 500 225 196 428 401 635 640 120 138 324 411 430 576 33 52
65 99 70 105 5 6 19 29 30 50 12 21 33 57 46 79 243 395 475 936 631 1473 42
148 117 454 130 537 3 22 7 42 9 45 2 3 6 24 9 46 4 22 9 51 11 64 3 14 8 40
11 59 3 18 7 41 9 50 7 36 67 337 71 356 2 11 6 31 9 45 7 34 12 57 36 190 24
132 21 112 54 300 14 80 28 161 32 180 11 58 12 64 18 106 3 22 8 52 10 65 2
13 6 42 10 64 3 22 10 65 15 95 5 30 12 75 15 100 3 25 10 70 15 100 5 30 12
80 15 110 4 30 8 57 10 60 1 3 6 37 9 75 4 39 9 77 11 85 4 16 10 69 20 165 4
33 8 67 10 75 2 8 7 48 10 89 4 41 8 82 10 91 2 9 6 56 10 106 4 49 9 91 10
94 2 3 6 55 10 115 4 61 8 121 10 135 4 26 15 183 20 280 24 442 24 1061 0
1360 -2 30 -6 91 -9 135 -7 97 -13 161 -27 280 -15 136 -19 168 -24 195 -2 14
-7 45 -10 70 -3 25 -7 54 -9 65 -2 11 -7 40 -10 65 -3 25 -8 56 -11 70 -6 29
-34 181 -41 225 -12 65 -76 327 -109 445 -19 69 -37 134 -40 144 -28 119 -179
516 -276 728 -199 435 -473 856 -778 1198 -131 146 -164 176 -236 217 -160 91
-538 336 -655 425 -14 10 -101 76 -195 145 -224 166 -529 405 -765 601 -36 29
-72 59 -80 65 -8 7 -143 118 -300 247 -728 602 -1146 931 -1453 1146 -556 388
-903 590 -1387 807 -175 79 -502 190 -705 241 -189 47 -436 90 -595 102 -75 6
-487 13 -492 9z m522 -209 c25 -3 61 -8 80 -11 19 -3 64 -10 100 -15 36 -5 76
-12 90 -15 13 -2 42 -7 64 -11 22 -3 43 -7 47 -9 3 -2 19 -6 35 -9 165 -30
562 -159 744 -243 30 -14 73 -32 95 -41 74 -29 389 -190 525 -268 339 -194
675 -420 1065 -713 99 -75 187 -141 195 -148 8 -7 83 -65 165 -130 83 -65 155
-122 161 -128 6 -5 30 -26 54 -45 67 -54 477 -390 781 -641 490 -403 817 -660
1139 -891 36 -26 70 -51 75 -55 40 -32 386 -256 500 -324 152 -90 179 -115
344 -309 338 -398 597 -837 805 -1362 119 -303 235 -706 301 -1048 26 -136 66
-386 80 -505 3 -27 8 -66 10 -85 3 -19 7 -60 10 -90 3 -30 7 -77 10 -105 43
-435 47 -1157 10 -1650 -4 -55 -6 -90 -20 -270 -4 -64 -13 -158 -20 -215 -2
-19 -7 -67 -10 -106 -3 -39 -7 -80 -9 -90 -2 -10 -7 -53 -11 -94 -4 -41 -9
-83 -10 -92 -2 -9 -6 -44 -10 -77 -3 -33 -7 -68 -9 -78 -2 -10 -7 -40 -10 -68
-4 -27 -8 -61 -11 -75 -2 -14 -7 -47 -10 -75 -3 -27 -10 -75 -15 -105 -5 -30
-12 -75 -15 -100 -4 -25 -13 -85 -20 -135 -8 -49 -17 -108 -20 -130 -4 -22 -8
-47 -10 -55 -2 -8 -7 -33 -10 -55 -3 -23 -7 -50 -9 -60 -2 -11 -7 -40 -11 -65
-4 -25 -9 -54 -11 -65 -8 -41 -56 -311 -60 -340 -3 -16 -9 -46 -14 -65 -5 -19
-12 -55 -15 -80 -3 -25 -10 -61 -15 -80 -5 -19 -11 -53 -15 -75 -3 -22 -7 -47
-10 -55 -2 -8 -6 -26 -9 -40 -3 -14 -18 -92 -35 -175 -16 -82 -32 -168 -35
-190 -5 -33 -24 -125 -71 -345 -13 -59 -34 -140 -38 -147 -3 -5 -8 -20 -10
-34 -13 -68 -89 -316 -152 -494 -294 -828 -759 -1570 -1361 -2169 -135 -135
-209 -204 -294 -276 -36 -30 -67 -57 -70 -60 -44 -48 -339 -267 -557 -413
-109 -73 -256 -176 -328 -228 -262 -192 -582 -397 -888 -568 -22 -12 -127 -67
-235 -123 -109 -55 -251 -133 -317 -173 -163 -98 -417 -236 -607 -328 -87 -43
-160 -77 -162 -77 -2 0 -46 -20 -97 -44 -129 -60 -333 -143 -529 -216 -91 -34
-244 -97 -340 -140 -389 -174 -804 -330 -1170 -440 -74 -22 -148 -44 -165 -50
-41 -13 -463 -119 -500 -126 -16 -3 -57 -11 -90 -19 -66 -15 -274 -53 -370
-68 -16 -3 -59 -10 -95 -16 -36 -5 -85 -13 -110 -16 -25 -3 -56 -8 -70 -10
-14 -3 -54 -7 -90 -10 -36 -3 -81 -7 -100 -10 -166 -22 -417 -35 -715 -35
-292 -1 -518 10 -730 36 -156 19 -193 24 -290 40 -169 28 -295 55 -500 106
-297 73 -534 165 -707 275 -31 19 -280 222 -298 243 -3 3 -59 50 -125 105 -66
55 -122 103 -125 106 -3 3 -124 106 -270 230 -146 123 -276 233 -290 245 -69
60 -1029 869 -1105 932 -11 9 -72 60 -135 113 -63 53 -259 214 -435 358 -176
145 -329 270 -340 279 -11 9 -146 118 -300 241 -154 123 -296 237 -315 252
-384 309 -1222 946 -1326 1009 -171 103 -429 322 -590 501 -32 36 -75 83 -94
105 -50 54 -185 232 -254 333 -133 194 -345 578 -420 761 -10 25 -25 60 -33
78 -63 145 -149 394 -223 645 -21 74 -85 342 -95 398 -3 19 -10 59 -15 89 -6
30 -12 66 -15 80 -2 14 -11 79 -20 145 -9 66 -18 136 -20 155 -3 19 -7 60 -9
90 -11 143 -16 222 -21 300 -3 47 -7 108 -10 135 -22 227 -30 438 -30 815 0
330 8 622 20 715 2 17 7 68 10 115 3 47 8 99 10 115 2 17 7 66 11 110 4 44 8
82 9 85 1 3 5 41 9 85 5 44 9 87 11 95 2 8 6 38 9 65 4 28 9 64 11 80 3 17 7
46 10 65 8 64 15 105 19 130 3 14 8 43 11 65 3 23 7 52 10 65 3 13 7 40 10 60
3 20 8 47 11 60 2 14 14 75 25 135 12 61 22 115 23 120 3 11 16 72 20 95 2 8
6 33 10 55 4 22 12 54 17 70 4 17 11 46 14 65 33 202 340 1300 416 1485 7 17
13 35 14 40 3 14 112 286 137 345 11 25 58 122 103 215 249 506 590 982 981
1369 611 604 1351 1054 2214 1349 205 70 521 162 630 183 14 3 50 11 80 19 30
8 71 17 90 20 19 3 55 11 80 16 25 6 56 13 70 15 14 2 45 9 70 14 25 5 61 12
80 14 19 3 44 8 56 10 12 2 45 7 75 11 47 5 139 41 464 180 144 62 532 199
738 260 83 25 166 49 182 54 94 30 527 131 668 156 58 11 669 248 902 350 51
23 788 325 820 336 17 6 44 17 60 24 115 49 639 229 790 271 100 28 356 93
395 100 14 3 63 14 110 25 47 11 119 27 160 34 41 8 86 17 100 20 14 2 49 7
78 11 29 3 63 7 75 10 12 2 56 7 97 10 41 4 77 8 79 10 5 5 502 -4 551 -10z"/>
<path d="M11917 18894 c-1 -1 -65 -4 -142 -8 -77 -3 -156 -8 -175 -11 -19 -2
-55 -7 -80 -10 -25 -3 -56 -7 -70 -10 -14 -2 -41 -7 -60 -9 -19 -3 -45 -8 -56
-10 -12 -2 -37 -7 -56 -10 -137 -22 -655 -143 -748 -175 -14 -5 -59 -19 -100
-31 -115 -34 -435 -140 -630 -210 -150 -53 -312 -113 -835 -306 -338 -124
-362 -132 -595 -184 -502 -113 -1027 -291 -1504 -509 -59 -28 -96 -38 -226
-65 -400 -82 -882 -242 -1310 -433 -161 -72 -401 -198 -565 -296 -132 -79
-414 -265 -435 -287 -3 -3 -23 -18 -45 -34 -41 -31 -231 -182 -251 -201 -6 -5
-35 -30 -64 -55 -118 -101 -341 -325 -474 -476 -216 -246 -412 -515 -565 -774
-34 -58 -66 -112 -71 -120 -6 -8 -59 -114 -119 -235 -140 -282 -221 -483 -323
-795 -50 -155 -138 -447 -144 -479 -3 -13 -9 -32 -15 -43 -5 -10 -7 -18 -5
-18 3 0 1 -12 -5 -27 -12 -32 -108 -414 -139 -553 -26 -113 -21 -89 -59 -276
-28 -141 -33 -168 -46 -241 -2 -16 -11 -68 -20 -118 -9 -49 -17 -106 -19 -125
-3 -19 -9 -62 -14 -95 -6 -33 -13 -81 -16 -107 -12 -95 -18 -143 -21 -168 -2
-14 -7 -56 -11 -95 -3 -38 -8 -77 -9 -85 -2 -8 -6 -60 -10 -115 -4 -55 -9
-108 -11 -118 -24 -132 -24 -1014 0 -1253 3 -21 7 -82 11 -134 9 -146 14 -211
20 -260 2 -25 7 -72 10 -105 3 -33 7 -76 10 -95 2 -19 7 -60 10 -90 9 -83 16
-133 20 -150 2 -8 7 -40 10 -70 3 -30 10 -71 15 -90 5 -19 11 -51 14 -70 3
-19 8 -48 11 -65 8 -41 84 -343 95 -380 6 -16 24 -75 41 -130 32 -102 122
-354 139 -390 5 -11 35 -78 66 -150 144 -332 342 -657 579 -955 229 -287 471
-520 805 -770 145 -109 617 -485 875 -698 83 -68 170 -140 195 -160 114 -94
846 -706 850 -712 4 -5 495 -412 760 -630 628 -518 1554 -1210 1790 -1338 201
-110 542 -214 905 -277 17 -3 80 -14 140 -24 61 -11 137 -22 170 -26 33 -4 67
-8 75 -10 8 -2 53 -7 100 -10 47 -4 96 -8 109 -10 141 -23 880 -23 1011 -1 14
2 59 7 100 11 82 7 136 12 190 20 19 2 55 7 80 10 538 69 1264 258 1915 500
577 214 1312 532 1610 697 103 57 379 221 980 581 242 146 477 308 679 469 16
12 64 50 105 83 42 34 128 101 191 150 63 50 126 100 140 111 14 12 61 52 105
89 273 230 584 543 811 816 47 57 94 113 103 124 45 55 197 264 271 375 200
298 411 690 534 995 32 77 61 149 67 160 41 90 201 623 223 745 2 14 12 61 21
105 24 114 23 109 45 235 11 63 22 126 24 140 3 14 7 42 10 63 3 20 8 52 11
70 42 274 77 516 90 617 24 181 24 180 30 235 3 28 8 61 10 75 5 33 13 102 20
175 3 33 8 71 10 85 2 14 6 54 10 90 4 36 8 76 10 90 5 32 14 129 20 200 2 30
7 87 11 125 10 116 12 136 19 255 4 63 8 131 10 150 27 272 27 1220 0 1510 -2
25 -7 79 -10 120 -6 79 -9 111 -25 255 -14 128 -19 166 -25 203 -3 17 -8 49
-11 70 -4 36 -16 107 -39 237 -17 94 -51 250 -86 390 -202 814 -559 1519
-1051 2076 -138 156 -158 174 -313 274 -197 128 -372 253 -635 451 -179 135
-663 514 -806 631 -285 235 -839 663 -1124 870 -868 629 -1587 987 -2310 1149
-63 14 -128 28 -145 30 -16 2 -41 6 -55 9 -14 3 -63 10 -110 15 -47 6 -98 13
-115 15 -39 6 -383 22 -388 19z m278 -209 c55 -3 111 -8 125 -10 14 -2 48 -6
75 -9 28 -4 64 -9 80 -12 17 -3 44 -7 60 -10 191 -32 606 -145 677 -184 10 -6
22 -10 27 -10 22 0 336 -137 491 -215 298 -148 565 -306 895 -529 218 -148
581 -411 720 -524 39 -31 282 -221 304 -237 23 -17 233 -184 288 -229 10 -8
56 -45 103 -83 47 -37 92 -73 100 -80 8 -6 53 -42 100 -79 47 -38 87 -70 90
-73 3 -4 23 -20 45 -37 22 -17 132 -103 245 -190 345 -268 551 -418 831 -605
101 -67 189 -127 194 -133 115 -117 302 -345 408 -498 68 -97 207 -315 207
-323 0 -3 12 -24 26 -47 45 -70 179 -346 234 -478 28 -69 55 -134 60 -145 19
-44 128 -363 136 -400 1 -5 18 -66 37 -135 29 -105 74 -294 92 -391 3 -13 9
-46 15 -74 15 -79 43 -247 54 -335 2 -14 7 -47 10 -75 13 -91 15 -110 21 -185
4 -41 8 -86 11 -100 2 -14 6 -65 9 -115 3 -49 8 -108 10 -130 23 -225 23 -970
0 -1315 -2 -36 -6 -108 -9 -160 -7 -116 -18 -254 -31 -395 -2 -22 -7 -71 -10
-110 -4 -38 -8 -86 -10 -105 -2 -19 -7 -64 -10 -100 -3 -36 -7 -76 -10 -90 -2
-14 -7 -54 -10 -90 -4 -36 -10 -94 -15 -130 -5 -36 -12 -92 -15 -125 -3 -33
-8 -71 -11 -84 -3 -13 -7 -45 -10 -70 -2 -25 -8 -75 -14 -111 -5 -36 -12 -85
-15 -110 -3 -25 -10 -72 -15 -105 -5 -33 -12 -78 -15 -100 -5 -42 -25 -179
-30 -205 -1 -8 -5 -33 -9 -55 -12 -84 -56 -351 -61 -375 -3 -14 -12 -59 -20
-100 -20 -99 -21 -103 -40 -190 -21 -92 -68 -267 -103 -380 -14 -47 -27 -89
-28 -95 -9 -36 -93 -258 -140 -373 -143 -349 -401 -816 -588 -1068 -17 -23
-38 -52 -46 -64 -17 -26 -237 -308 -254 -326 -6 -6 -22 -24 -35 -40 -128 -152
-439 -471 -586 -601 -114 -101 -125 -110 -245 -208 -326 -266 -633 -503 -800
-617 -123 -84 -953 -585 -1225 -740 -217 -124 -449 -233 -830 -393 -619 -260
-900 -367 -1325 -503 -139 -44 -539 -157 -590 -166 -14 -2 -45 -9 -70 -16 -25
-7 -54 -14 -65 -16 -11 -2 -74 -15 -140 -28 -143 -29 -263 -52 -325 -61 -25
-4 -52 -8 -60 -10 -8 -1 -37 -6 -65 -9 -27 -4 -61 -9 -75 -11 -102 -15 -270
-31 -435 -42 -253 -17 -838 -5 -1020 21 -16 3 -68 10 -115 16 -100 13 -95 12
-275 44 -252 44 -580 125 -675 168 -14 6 -34 14 -45 18 -38 15 -190 91 -226
113 -188 116 -890 636 -1289 954 -176 140 -500 403 -680 551 -78 65 -554 463
-580 485 -114 98 -886 742 -975 812 -27 22 -52 42 -55 45 -13 15 -350 285
-565 455 -16 13 -46 36 -66 52 -20 15 -51 39 -69 53 -18 14 -38 30 -44 35 -6
6 -56 44 -111 85 -664 498 -1161 1202 -1436 2034 -27 83 -95 309 -104 346 -2
8 -15 62 -29 120 -20 88 -34 154 -61 300 -7 39 -16 98 -20 130 -10 80 -17 136
-20 160 -2 14 -7 52 -9 85 -3 33 -8 85 -11 115 -6 61 -11 123 -20 256 -4 49
-8 105 -10 124 -2 19 -7 91 -10 159 -4 68 -9 145 -11 170 -5 73 -5 524 1 651
4 116 11 220 21 340 3 36 7 83 9 105 5 66 18 193 30 285 2 19 7 59 11 89 3 30
7 61 9 70 1 9 6 41 10 71 4 30 9 64 11 75 2 11 7 40 10 65 27 222 163 846 264
1215 23 83 43 157 45 165 13 54 115 380 157 505 93 275 154 424 280 684 603
1239 1719 2177 3142 2643 170 55 497 144 635 173 9 2 36 8 61 14 25 5 59 12
77 15 17 3 82 29 145 57 471 213 979 383 1473 494 203 46 370 101 960 320 33
12 150 55 260 94 110 40 209 77 220 81 31 14 237 84 365 125 63 20 133 43 155
50 65 22 247 75 310 91 6 1 82 20 170 42 146 37 357 83 445 97 19 3 42 8 50
10 15 4 40 8 135 20 28 4 61 9 75 11 14 2 77 7 140 10 63 4 116 7 117 8 5 4
253 -2 348 -9z"/>
<path d="M11537 17793 c-1 -1 -43 -4 -92 -8 -140 -9 -206 -18 -415 -51 -535
-86 -949 -196 -1915 -509 -159 -51 -360 -110 -445 -130 -434 -104 -978 -294
-1325 -463 -33 -16 -112 -44 -175 -61 -115 -32 -458 -143 -495 -161 -11 -5
-67 -28 -125 -50 -243 -95 -565 -252 -775 -379 -33 -20 -68 -40 -78 -46 -172
-96 -572 -395 -781 -584 -80 -73 -313 -309 -386 -391 -207 -234 -428 -534
-561 -763 -19 -33 -43 -73 -53 -90 -82 -138 -192 -360 -273 -552 -30 -71 -58
-139 -63 -150 -38 -88 -175 -504 -244 -740 -66 -226 -167 -637 -192 -785 -3
-14 -11 -59 -19 -100 -8 -41 -17 -91 -20 -110 -7 -39 -14 -83 -20 -120 -11
-63 -44 -301 -49 -355 -4 -33 -8 -71 -11 -85 -2 -14 -7 -60 -10 -102 -4 -42
-8 -99 -10 -125 -16 -192 -19 -276 -20 -578 0 -305 8 -577 20 -645 2 -14 6
-63 9 -110 3 -47 8 -105 10 -130 3 -25 8 -75 11 -111 3 -36 7 -76 9 -90 3 -13
8 -51 11 -84 15 -122 22 -164 50 -320 56 -303 180 -720 300 -1005 244 -580
594 -1090 1027 -1495 136 -127 570 -514 903 -804 116 -101 226 -198 245 -215
19 -17 62 -53 95 -80 33 -27 65 -54 70 -60 24 -26 523 -439 686 -568 19 -15
45 -36 59 -47 150 -120 649 -496 775 -584 22 -15 76 -53 119 -83 162 -114 416
-284 425 -284 5 0 11 -4 13 -8 6 -16 519 -327 698 -424 36 -20 94 -48 130 -62
36 -15 74 -31 85 -36 110 -48 509 -147 710 -175 22 -3 65 -10 95 -15 30 -5 81
-12 113 -15 32 -4 67 -8 77 -10 18 -4 96 -11 210 -20 161 -13 265 -17 455 -17
223 0 305 4 578 27 58 5 192 21 247 30 14 2 48 7 75 10 236 31 615 114 940
206 332 95 659 210 1012 358 175 73 238 100 353 153 25 12 70 32 100 45 436
192 673 328 1281 734 500 333 626 428 955 724 380 342 593 557 799 805 48 58
94 114 103 125 56 67 203 272 290 402 314 474 556 994 708 1520 44 153 93 357
113 468 6 33 13 71 16 85 6 28 21 123 30 185 3 23 7 50 9 61 2 12 7 45 11 75
3 30 12 104 20 164 8 61 17 139 20 175 3 36 8 81 10 100 3 19 7 60 10 90 2 30
7 78 10 105 7 73 13 139 20 230 3 44 8 97 10 117 2 20 7 85 10 145 4 59 8 131
10 158 24 297 24 1057 1 1390 -8 106 -17 226 -21 260 -1 17 -6 62 -9 100 -4
39 -9 84 -12 100 -2 17 -6 50 -8 75 -3 25 -8 63 -11 85 -9 58 -23 154 -30 200
-4 22 -13 72 -20 110 -8 39 -16 84 -19 100 -37 217 -147 620 -242 881 -206
573 -534 1129 -895 1519 -21 22 -55 59 -76 81 -21 23 -81 72 -133 110 -87 62
-304 222 -340 251 -8 6 -94 73 -190 148 -96 74 -182 141 -190 148 -35 29 -485
382 -619 486 -192 148 -492 373 -661 493 -135 95 -484 328 -550 366 -19 11
-98 57 -175 102 -553 326 -1150 558 -1635 634 -19 3 -44 8 -55 10 -12 2 -48 7
-80 11 -33 4 -70 8 -83 10 -79 13 -536 28 -545 18z m473 -207 c19 -3 58 -8 85
-11 28 -3 75 -10 105 -15 30 -5 71 -11 90 -14 28 -4 254 -54 320 -71 220 -56
567 -191 850 -330 93 -46 363 -194 430 -235 8 -6 71 -44 140 -86 419 -257 770
-515 1760 -1295 162 -128 412 -319 555 -425 143 -106 291 -224 328 -261 154
-153 432 -527 558 -750 110 -195 180 -334 244 -483 15 -36 34 -79 42 -97 80
-185 229 -686 278 -938 16 -84 47 -254 51 -285 2 -19 6 -46 9 -60 9 -47 22
-137 31 -215 3 -33 8 -67 9 -76 2 -9 6 -56 10 -105 4 -49 9 -97 10 -106 2 -10
7 -59 10 -110 3 -51 8 -113 10 -136 23 -225 23 -1025 1 -1362 -2 -30 -7 -109
-11 -175 -3 -66 -8 -136 -10 -155 -2 -19 -6 -75 -10 -125 -3 -49 -8 -108 -10
-130 -2 -22 -7 -67 -10 -100 -3 -33 -8 -76 -10 -95 -2 -19 -7 -62 -10 -95 -13
-141 -38 -350 -55 -465 -6 -41 -13 -88 -15 -104 -21 -150 -69 -376 -125 -586
-36 -133 -137 -448 -160 -495 -5 -11 -23 -54 -39 -95 -124 -316 -312 -669
-535 -1000 -271 -403 -571 -746 -976 -1114 -85 -77 -157 -143 -160 -146 -10
-11 -235 -206 -290 -251 -224 -185 -903 -643 -1284 -867 -123 -72 -417 -219
-601 -301 -66 -30 -153 -69 -194 -88 -561 -260 -1322 -510 -1851 -609 -14 -3
-70 -13 -125 -24 -55 -10 -122 -21 -150 -25 -27 -3 -60 -8 -73 -11 -12 -2 -44
-7 -70 -10 -26 -3 -60 -7 -77 -9 -16 -2 -61 -6 -100 -10 -38 -3 -84 -8 -102
-10 -170 -23 -812 -23 -988 0 -16 2 -57 7 -90 10 -33 3 -73 7 -90 10 -16 3
-48 7 -70 10 -22 3 -83 12 -135 21 -52 8 -110 17 -129 20 -39 6 -56 10 -91 18
-14 3 -36 8 -50 10 -138 22 -394 101 -535 164 -236 105 -985 581 -1449 920
-250 184 -481 361 -726 556 -163 130 -509 413 -520 426 -3 3 -48 41 -100 85
-52 44 -100 84 -106 90 -6 5 -37 33 -69 60 -131 111 -311 268 -326 284 -9 9
-40 36 -69 60 -29 25 -58 50 -64 56 -6 5 -44 39 -85 75 -41 36 -82 72 -91 80
-9 8 -34 31 -56 50 -22 19 -82 73 -134 120 -52 47 -100 90 -106 95 -6 6 -46
42 -90 80 -294 263 -464 449 -655 717 -73 102 -196 291 -235 363 -6 11 -29 52
-50 90 -94 170 -207 427 -281 640 -63 182 -150 485 -168 585 -3 17 -12 61 -19
98 -8 37 -17 85 -20 107 -4 22 -9 51 -11 65 -11 64 -45 343 -50 413 -4 43 -8
86 -10 96 -2 9 -6 64 -10 121 -3 58 -8 121 -10 140 -22 230 -22 808 0 1030 2
19 6 73 10 120 3 47 7 101 10 120 2 19 7 60 10 90 12 111 46 352 60 430 5 28
11 65 21 125 5 34 12 68 39 196 2 9 6 32 9 51 3 20 21 102 41 184 104 444 245
905 382 1254 89 228 326 707 355 718 4 2 8 8 8 13 0 12 152 247 223 344 683
936 1652 1599 2827 1935 80 23 205 68 278 101 183 82 469 197 632 252 129 44
318 105 350 112 8 2 60 15 115 30 55 15 154 39 220 55 66 15 210 57 320 93
340 111 518 169 565 182 25 8 74 22 110 33 297 91 559 163 750 207 41 9 82 18
90 20 99 23 181 39 295 59 82 15 107 19 185 31 25 4 54 9 65 11 11 2 47 7 80
10 33 4 62 8 65 10 4 1 49 6 100 9 52 4 97 9 98 10 6 5 463 -4 502 -9z"/>
<path d="M11268 16705 c-2 -1 -61 -5 -133 -9 -71 -4 -148 -9 -170 -11 -22 -2
-69 -7 -105 -10 -36 -3 -76 -8 -90 -10 -14 -2 -47 -7 -75 -10 -95 -11 -140
-17 -230 -31 -125 -21 -141 -23 -177 -29 -192 -31 -663 -143 -983 -234 -115
-32 -282 -78 -370 -101 -338 -88 -737 -231 -1023 -366 -65 -30 -213 -94 -331
-141 -266 -106 -525 -231 -739 -356 -35 -20 -67 -37 -73 -37 -5 0 -9 -4 -9
-10 0 -5 -5 -10 -11 -10 -29 0 -415 -271 -589 -413 -194 -159 -471 -425 -616
-592 -38 -44 -72 -82 -75 -85 -4 -4 -196 -251 -237 -305 -40 -54 -185 -276
-244 -376 -199 -332 -345 -653 -489 -1079 -100 -292 -168 -540 -244 -881 -2
-9 -6 -33 -9 -54 -4 -20 -8 -40 -10 -44 -2 -3 -7 -26 -10 -51 -3 -25 -8 -56
-11 -70 -11 -55 -21 -113 -30 -180 -3 -25 -10 -70 -15 -100 -5 -30 -11 -82
-15 -115 -3 -33 -8 -78 -10 -100 -8 -61 -18 -180 -31 -375 -4 -65 -4 -576 1
-635 2 -27 6 -90 9 -140 5 -85 8 -115 21 -260 8 -82 16 -143 35 -291 10 -77
14 -100 25 -154 3 -14 8 -43 11 -65 30 -203 165 -691 244 -880 4 -11 14 -36
21 -55 7 -19 22 -57 34 -85 12 -27 30 -70 40 -95 35 -83 194 -394 245 -480 28
-47 57 -94 63 -105 80 -134 308 -447 411 -564 244 -277 731 -766 1010 -1015
513 -456 967 -797 1486 -1118 102 -63 192 -117 200 -121 8 -4 24 -13 35 -20
233 -141 826 -428 1047 -506 139 -48 417 -118 548 -136 14 -2 84 -12 155 -23
72 -11 159 -24 195 -27 36 -4 77 -8 92 -10 113 -13 285 -20 533 -20 341 0 475
8 757 46 43 5 90 12 105 13 16 2 57 9 93 16 36 6 74 13 85 15 23 3 127 23 165
30 253 48 659 166 975 283 427 157 985 426 1330 640 284 177 810 566 1026 760
214 191 481 463 675 687 601 692 1013 1485 1220 2344 19 79 37 158 39 175 3
17 8 38 10 46 2 8 6 29 9 45 14 84 17 101 21 115 2 8 6 38 10 65 3 28 10 77
15 110 5 33 12 96 16 140 3 44 8 87 9 96 6 31 20 226 32 444 15 264 7 1005
-12 1185 -2 19 -6 78 -10 130 -3 52 -8 102 -10 110 -2 8 -6 47 -10 85 -11 125
-52 402 -80 545 -2 14 -7 39 -11 55 -37 194 -102 451 -155 621 -17 54 -32 106
-34 114 -8 37 -111 312 -161 432 -94 224 -240 509 -342 668 -195 305 -342 497
-552 720 -75 80 -747 627 -1070 872 -1159 877 -2093 1297 -3060 1374 -81 6
-387 13 -392 9z m442 -209 c19 -3 58 -8 85 -11 28 -3 61 -7 75 -9 74 -13 226
-38 235 -40 6 -2 37 -8 70 -15 462 -98 977 -314 1525 -639 139 -83 528 -339
607 -400 21 -16 90 -66 153 -112 286 -208 1099 -863 1184 -954 15 -17 49 -53
75 -81 25 -27 86 -99 134 -160 49 -60 95 -118 103 -128 40 -49 209 -306 269
-407 91 -155 251 -484 315 -650 29 -74 58 -148 65 -165 64 -153 205 -676 246
-910 26 -152 59 -357 64 -405 3 -30 8 -66 10 -80 2 -14 7 -54 10 -90 4 -36 8
-81 10 -100 2 -19 7 -75 10 -125 4 -49 8 -106 10 -125 28 -288 16 -1153 -21
-1475 -2 -22 -7 -69 -10 -105 -3 -36 -7 -76 -9 -90 -2 -14 -7 -52 -11 -85 -3
-33 -8 -62 -9 -65 -2 -3 -6 -30 -10 -60 -5 -45 -25 -153 -51 -284 -16 -82 -92
-368 -125 -472 -261 -818 -686 -1519 -1324 -2183 -233 -242 -314 -319 -541
-510 -147 -125 -512 -396 -709 -529 -468 -313 -1133 -629 -1730 -823 -98 -32
-404 -120 -465 -134 -74 -17 -404 -84 -435 -89 -22 -3 -53 -8 -70 -10 -56 -9
-180 -26 -230 -31 -27 -3 -63 -8 -80 -10 -180 -27 -1001 -27 -1105 0 -8 2 -44
6 -80 10 -36 3 -76 7 -90 10 -14 2 -43 6 -65 10 -45 6 -254 42 -300 50 -76 15
-269 68 -360 98 -212 72 -608 261 -980 467 -256 142 -724 450 -994 653 -160
121 -361 278 -397 312 -6 5 -22 19 -36 30 -62 52 -144 121 -154 130 -6 5 -39
35 -74 65 -70 60 -63 55 -211 190 -207 189 -722 712 -841 855 -18 22 -49 58
-68 80 -104 117 -267 349 -391 555 -157 262 -304 585 -409 898 -40 123 -50
154 -96 327 -26 97 -89 402 -99 475 -3 25 -8 56 -10 70 -6 31 -15 110 -20 170
-2 25 -6 59 -9 75 -3 17 -8 68 -11 115 -4 47 -8 101 -10 120 -24 238 -24 812
0 1007 2 15 6 66 10 113 4 47 8 92 10 100 1 8 6 44 9 80 4 36 11 90 16 120 5
30 12 73 15 94 75 519 258 1159 475 1671 52 124 205 431 255 513 6 9 24 40 40
67 97 165 332 498 427 606 13 15 43 51 68 80 304 363 793 778 1191 1014 335
198 556 306 889 435 69 26 188 77 265 113 329 152 636 262 1000 358 105 28
267 73 360 99 240 69 665 174 790 196 17 3 62 11 100 19 81 16 232 42 290 50
22 2 49 6 60 9 19 4 89 13 150 21 17 2 66 6 110 10 44 4 91 8 105 10 14 2 68
7 120 10 52 4 97 8 98 10 5 5 492 -4 532 -9z"/>
<path d="M10528 15644 c-2 -1 -57 -5 -123 -8 -65 -4 -133 -9 -150 -11 -16 -2
-57 -7 -90 -10 -96 -9 -146 -16 -205 -25 -30 -5 -75 -12 -100 -15 -76 -10
-329 -63 -455 -95 -66 -17 -129 -32 -140 -35 -40 -9 -303 -94 -395 -128 -918
-336 -1734 -908 -2352 -1651 -33 -39 -67 -80 -76 -91 -85 -102 -264 -355 -368
-520 -278 -439 -536 -1034 -654 -1503 -5 -23 -15 -61 -21 -84 -6 -24 -12 -50
-14 -58 -2 -8 -9 -37 -15 -65 -13 -54 -12 -52 -35 -165 -16 -81 -40 -234 -50
-315 -4 -27 -8 -60 -10 -72 -2 -12 -7 -57 -10 -100 -4 -43 -9 -86 -11 -96 -21
-114 -21 -720 0 -932 2 -16 7 -64 10 -105 22 -227 81 -553 147 -815 66 -259
194 -630 284 -823 14 -29 25 -55 25 -58 0 -7 151 -309 189 -379 542 -981 1351
-1768 2331 -2267 122 -62 302 -148 320 -153 3 -1 16 -6 30 -12 193 -82 424
-165 623 -222 99 -29 360 -94 417 -104 14 -3 63 -12 110 -21 105 -19 148 -26
180 -31 124 -17 194 -25 245 -30 33 -3 76 -8 95 -10 208 -25 847 -25 979 0 9
1 57 6 106 10 50 4 92 8 95 10 3 1 32 6 65 10 315 35 787 152 1147 284 248 91
629 265 759 346 21 14 41 25 45 25 9 0 219 128 333 203 323 214 582 427 866
711 278 278 458 495 664 801 306 454 521 895 684 1400 49 151 137 480 151 560
2 17 11 64 20 105 14 74 21 114 31 188 3 20 7 46 10 57 2 11 7 47 10 80 4 33
8 71 11 85 2 14 6 59 10 100 3 41 8 93 10 115 9 71 12 688 4 760 -5 39 -11
108 -14 154 -4 47 -9 98 -11 115 -2 17 -11 84 -20 150 -13 97 -42 260 -71 406
-20 101 -104 408 -146 533 -137 413 -285 738 -506 1112 -57 98 -244 380 -305
460 -33 44 -211 266 -237 295 -12 14 -54 62 -93 108 -79 90 -344 354 -447 444
-374 327 -768 593 -1190 803 -155 77 -174 86 -290 135 -41 18 -88 38 -105 45
-64 27 -195 76 -310 115 -117 40 -482 143 -541 153 -16 3 -87 17 -159 31 -166
33 -268 49 -385 61 -30 3 -66 8 -80 10 -14 2 -59 7 -100 10 -41 3 -104 8 -140
11 -64 6 -577 13 -582 8z m637 -208 c44 -3 89 -8 100 -10 11 -3 52 -8 90 -11
39 -4 81 -8 95 -10 14 -3 57 -9 95 -15 39 -5 82 -12 98 -15 15 -3 39 -7 55
-10 15 -2 38 -7 52 -10 14 -2 36 -7 50 -9 259 -46 685 -176 985 -301 881 -366
1638 -955 2223 -1728 82 -107 292 -418 292 -431 0 -4 11 -22 25 -40 14 -18 25
-35 25 -38 0 -3 25 -50 56 -104 168 -296 343 -712 447 -1064 49 -164 112 -426
131 -545 3 -16 12 -70 20 -120 16 -97 24 -154 31 -225 3 -25 7 -54 9 -65 2
-11 7 -69 11 -130 4 -60 9 -126 11 -145 4 -42 4 -510 0 -560 -2 -19 -6 -84
-10 -144 -4 -59 -9 -118 -11 -130 -4 -25 -12 -91 -20 -161 -17 -151 -87 -496
-141 -690 -185 -670 -502 -1301 -927 -1850 -56 -71 -103 -132 -106 -135 -4 -3
-21 -23 -40 -45 -166 -195 -395 -425 -594 -597 -128 -110 -377 -302 -486 -374
-24 -16 -54 -36 -67 -44 -571 -378 -1294 -667 -1959 -784 -16 -3 -41 -8 -55
-10 -14 -3 -41 -7 -60 -10 -72 -10 -136 -19 -155 -22 -11 -2 -54 -7 -95 -10
-41 -3 -77 -8 -81 -9 -15 -10 -275 -20 -504 -20 -228 0 -410 7 -525 20 -19 3
-60 7 -90 10 -84 9 -357 52 -440 70 -14 3 -34 7 -45 9 -11 2 -51 12 -90 21
-38 9 -79 18 -90 21 -59 12 -333 92 -415 121 -52 19 -102 36 -110 38 -8 2 -16
4 -17 5 -2 2 -6 3 -10 5 -5 1 -17 5 -28 10 -11 4 -76 30 -145 57 -261 104
-652 310 -920 486 -98 64 -282 197 -356 256 -28 23 -68 55 -89 71 -301 236
-744 711 -974 1045 -279 404 -452 726 -616 1145 -34 88 -68 178 -74 200 -7 22
-16 49 -21 60 -16 35 -120 404 -134 477 -2 13 -12 57 -21 98 -9 41 -18 84 -20
95 -1 11 -7 47 -13 80 -13 68 -17 97 -28 175 -9 74 -11 85 -19 160 -3 36 -8
76 -10 90 -25 174 -25 784 0 985 2 17 7 55 10 85 11 108 29 232 50 360 30 175
109 490 176 695 203 629 517 1201 952 1739 231 285 607 645 917 877 577 432
1232 745 1920 915 86 22 390 82 444 89 27 3 52 8 55 9 3 2 35 6 71 10 36 3 83
9 105 11 84 11 113 14 220 21 61 3 112 8 114 10 5 4 587 -4 676 -10z"/>
</g>
</svg>
